<svg width="28" height="32" viewBox="0 0 28 32" fill="none" xmlns="http://www.w3.org/2000/svg">
    <path
        d="M7.41174 19.0362C7.00843 19.0362 6.66477 18.8942 6.38076 18.6102C6.09676 18.3262 5.95475 17.9825 5.95475 17.5792C5.95475 17.1759 6.09676 16.8322 6.38076 16.5482C6.66477 16.2642 7.00843 16.1222 7.41174 16.1222C7.81506 16.1222 8.15872 16.2642 8.44272 16.5482C8.72673 16.8322 8.86874 17.1759 8.86874 17.5792C8.86874 17.9825 8.72673 18.3262 8.44272 18.6102C8.15872 18.8942 7.81506 19.0362 7.41174 19.0362ZM14 19.0362C13.5967 19.0362 13.253 18.8942 12.969 18.6102C12.685 18.3262 12.543 17.9825 12.543 17.5792C12.543 17.1759 12.685 16.8322 12.969 16.5482C13.253 16.2642 13.5967 16.1222 14 16.1222C14.4033 16.1222 14.747 16.2642 15.031 16.5482C15.315 16.8322 15.457 17.1759 15.457 17.5792C15.457 17.9825 15.315 18.3262 15.031 18.6102C14.747 18.8942 14.4033 19.0362 14 19.0362ZM20.5883 19.0362C20.1849 19.0362 19.8413 18.8942 19.5573 18.6102C19.2733 18.3262 19.1313 17.9825 19.1313 17.5792C19.1313 17.1759 19.2733 16.8322 19.5573 16.5482C19.8413 16.2642 20.1849 16.1222 20.5883 16.1222C20.9916 16.1222 21.3352 16.2642 21.6192 16.5482C21.9032 16.8322 22.0452 17.1759 22.0452 17.5792C22.0452 17.9825 21.9032 18.3262 21.6192 18.6102C21.3352 18.8942 20.9916 19.0362 20.5883 19.0362ZM2.9774 31.4842C2.14541 31.4842 1.44118 31.1959 0.864708 30.6194C0.288236 30.043 0 29.3387 0 28.5068V6.46156C0 5.62957 0.288236 4.92534 0.864708 4.34887C1.44118 3.77239 2.14541 3.48416 2.9774 3.48416H5.25796V0H7.79184V3.48416H20.2715V0H22.742V3.48416H25.0226C25.8546 3.48416 26.5588 3.77239 27.1353 4.34887C27.7118 4.92534 28 5.62957 28 6.46156V28.5068C28 29.3387 27.7118 30.043 27.1353 30.6194C26.5588 31.1959 25.8546 31.4842 25.0226 31.4842H2.9774ZM2.9774 29.0136H25.0226C25.1493 29.0136 25.2655 28.9608 25.3711 28.8552C25.4767 28.7496 25.5294 28.6335 25.5294 28.5068V13.0498H2.47055V28.5068C2.47055 28.6335 2.52334 28.7496 2.62892 28.8552C2.73452 28.9608 2.85068 29.0136 2.9774 29.0136ZM2.47055 10.5793H25.5294V6.46156C25.5294 6.33484 25.4767 6.21868 25.3711 6.11308C25.2655 6.0075 25.1493 5.95471 25.0226 5.95471H2.9774C2.85068 5.95471 2.73452 6.0075 2.62892 6.11308C2.52334 6.21868 2.47055 6.33484 2.47055 6.46156V10.5793Z"
        fill="#2BAD72"/>
</svg>
