<svg width="50" height="50" viewBox="0 0 50 50" fill="none" xmlns="http://www.w3.org/2000/svg">
    <mask id="mask0_7_630" style="mask-type:luminance" maskUnits="userSpaceOnUse" x="1" y="3" width="48" height="43">
        <path d="M48.0435 3.98886H1.84975V45.9025H48.0435V3.98886Z" fill="white"/>
    </mask>
    <g mask="url(#mask0_7_630)">
        <path fill-rule="evenodd" clip-rule="evenodd"
              d="M13.7012 40.5063C17.9325 43.9438 22.8207 45.9028 28.0338 45.9028C35.7861 45.9028 42.8236 41.5576 48.0459 34.4809C45.841 31.4936 43.3133 28.9914 40.542 27.0998L36.0926 29.3211C37.0488 30.8088 37.6059 32.5799 37.6059 34.4809C37.6059 39.7612 33.3211 44.0412 28.0338 44.0412C23.9256 44.0412 20.423 41.4555 19.0652 37.8254L13.7012 40.5039V40.5063ZM24.7402 34.9938C24.8469 35.6877 25.1719 36.333 25.6756 36.8367C26.3 37.461 27.1494 37.8115 28.0338 37.8092C29.8744 37.8092 31.3668 36.319 31.3668 34.4809C31.3668 33.5779 31.007 32.7586 30.4221 32.1574L24.7426 34.9938H24.7402Z"
              fill="#2BAD72"/>
        <path
            d="M14.9127 34.4063L47.3447 18.8158L40.2168 3.98886L36.5355 17.0912L32.1117 7.88591L28.4281 20.9883L24.0043 11.783L20.3207 24.8854L15.8968 15.68L12.2133 28.7824L7.78934 19.5772L1.84975 40.6871L9.95721 36.7901L14.9127 34.4086V34.4063Z"
            fill="#2BAD72"/>
    </g>
</svg>
